<?xml version="1.0" encoding="iso-8859-1"?>
<!-- Generator: Adobe Illustrator 21.1.0, SVG Export Plug-In . SVG Version: 6.00 Build 0)  -->
<svg xmlns="http://www.w3.org/2000/svg" xmlns:xlink="http://www.w3.org/1999/xlink" version="1.1" id="Layer_1" x="0px" y="0px" viewBox="0 0 80 80" style="enable-background:new 0 0 80 80;" xml:space="preserve">
<g>
	<g>
		<g>
			<rect x="5" y="15" style="fill:#C5E4FA;" width="54" height="40"/>
			<polygon style="fill:#E3F2FF;" points="38.107,55 59,34.107 59,16 56.214,16 17.214,55    "/>
			<polygon style="fill:#E3F2FF;" points="5.286,55 13.643,55 52.643,16 44.286,16    "/>
			<polygon style="fill:#E3F2FF;" points="5,51.714 40.714,16 36.75,16 5,47.75    "/>
			<path style="fill:#ACB7D0;" d="M57,19H7c-1.105,0-2-0.895-2-2v-6c0-1.105,0.895-2,2-2h50c1.105,0,2,0.895,2,2v6     C59,18.105,58.105,19,57,19z"/>
		</g>
		<polygon style="fill:#FFF8F8;" points="50.502,28.996 51.74,31.26 54.004,32.498 51.74,33.736 50.502,36 49.264,33.736 47,32.498     49.264,31.26   "/>
		<polygon style="fill:#FFF8F8;" points="11.419,23.162 12.274,24.726 13.838,25.581 12.274,26.436 11.419,28 10.564,26.436     9,25.581 10.564,24.726   "/>
		<polygon style="fill:#FFF8F8;" points="34.648,46.704 35.231,47.769 36.296,48.352 35.231,48.935 34.648,50 34.065,48.935     33,48.352 34.065,47.769   "/>
	</g>
	<g>
		<path style="fill:#8D6C9F;" d="M39.962,28.726c-0.152-0.532-0.709-0.834-1.236-0.688c-0.531,0.152-0.839,0.706-0.688,1.236l4,14    C42.164,43.714,42.564,44,42.999,44c0.092,0,0.184-0.013,0.275-0.038c0.531-0.152,0.839-0.706,0.688-1.236L39.962,28.726z"/>
		<path style="fill:#8D6C9F;" d="M21,28h2c1.654,0,3,1.346,3,3c0,0.553,0.447,1,1,1s1-0.447,1-1c0-2.757-2.243-5-5-5h-2    c-2.757,0-5,2.243-5,5v10c0,2.757,2.243,5,5,5h2c2.757,0,5-2.243,5-5c0-0.553-0.447-1-1-1s-1,0.447-1,1c0,1.654-1.346,3-3,3h-2    c-1.654,0-3-1.346-3-3V31C18,29.346,19.346,28,21,28z"/>
		<path style="fill:#8D6C9F;" d="M33.5,40c-0.827,0-1.5,0.673-1.5,1.5s0.673,1.5,1.5,1.5s1.5-0.673,1.5-1.5S34.327,40,33.5,40z"/>
		<path style="fill:#8D6C9F;" d="M33.5,30c-0.827,0-1.5,0.673-1.5,1.5s0.673,1.5,1.5,1.5s1.5-0.673,1.5-1.5S34.327,30,33.5,30z"/>
		<path style="fill:#8D6C9F;" d="M55,18h-4c-0.553,0-1,0.447-1,1s0.447,1,1,1h4c0.553,0,1-0.447,1-1S55.553,18,55,18z"/>
		<path style="fill:#8D6C9F;" d="M57,8H7c-1.654,0-3,1.346-3,3v42c0,1.654,1.346,3,3,3h50c1.654,0,3-1.346,3-3V11    C60,9.346,58.654,8,57,8z M58,53c0,0.552-0.448,1-1,1H7c-0.552,0-1-0.448-1-1V20h41c0.553,0,1-0.447,1-1s-0.447-1-1-1H6v-7    c0-0.552,0.448-1,1-1h50c0.552,0,1,0.448,1,1V53z"/>
		<path style="fill:#8D6C9F;" d="M20,12c-0.553,0-1,0.447-1,1v2c0,0.553,0.447,1,1,1s1-0.447,1-1v-2C21,12.447,20.553,12,20,12z"/>
		<path style="fill:#8D6C9F;" d="M15,12c-0.553,0-1,0.447-1,1v2c0,0.553,0.447,1,1,1s1-0.447,1-1v-2C16,12.447,15.553,12,15,12z"/>
		<path style="fill:#8D6C9F;" d="M10,12c-0.553,0-1,0.447-1,1v2c0,0.553,0.447,1,1,1s1-0.447,1-1v-2C11,12.447,10.553,12,10,12z"/>
		<path style="fill:#8D6C9F;" d="M35,12c-0.553,0-1,0.447-1,1v2c0,0.553,0.447,1,1,1s1-0.447,1-1v-2C36,12.447,35.553,12,35,12z"/>
		<path style="fill:#8D6C9F;" d="M40,12c-0.553,0-1,0.447-1,1v2c0,0.553,0.447,1,1,1s1-0.447,1-1v-2C41,12.447,40.553,12,40,12z"/>
		<path style="fill:#8D6C9F;" d="M45,12c-0.553,0-1,0.447-1,1v2c0,0.553,0.447,1,1,1s1-0.447,1-1v-2C46,12.447,45.553,12,45,12z"/>
		<path style="fill:#8D6C9F;" d="M51,15v-2c0-0.553-0.447-1-1-1s-1,0.447-1,1v2c0,0.553,0.447,1,1,1S51,15.553,51,15z"/>
		<path style="fill:#8D6C9F;" d="M55,12c-0.553,0-1,0.447-1,1v2c0,0.553,0.447,1,1,1s1-0.447,1-1v-2C56,12.447,55.553,12,55,12z"/>
		<path style="fill:#8D6C9F;" d="M25,12c-0.553,0-1,0.447-1,1v2c0,0.553,0.447,1,1,1s1-0.447,1-1v-2C26,12.447,25.553,12,25,12z"/>
		<path style="fill:#8D6C9F;" d="M30,12c-0.553,0-1,0.447-1,1v2c0,0.553,0.447,1,1,1s1-0.447,1-1v-2C31,12.447,30.553,12,30,12z"/>
	</g>
</g>
</svg>
