<?xml version="1.0"?>
<svg xmlns="http://www.w3.org/2000/svg" id="Layer_1" data-name="Layer 1" viewBox="0 0 64 64"><title>Icons8 RSL Colored Part 7</title><path d="M9,13.06H59a2,2,0,0,1,2,2v34h0a2,2,0,0,1,2,2v2a2,2,0,0,1-2,2H7a2,2,0,0,1-2-2v-2a2,2,0,0,1,2-2H7v-34A2,2,0,0,1,9,13.06Z" style="fill:#acb7d0;"/><path d="M9,13H59a2,2,0,0,1,2,2V47a2,2,0,0,1-2,2H7a0,0,0,0,1,0,0V15A2,2,0,0,1,9,13Z" style="fill:#c5e4fa;"/><polygon points="61 28.57 40.57 49 59.79 48 61 46.79 61 28.57" style="fill:#e3f2ff;"/><polygon points="61 16.43 28.39 49.04 35.68 49.04 61 23.71 61 16.43" style="fill:#e3f2ff;"/><polygon points="53.2 13.3 18.5 48 24.57 48 59.27 13.3 53.2 13.3" style="fill:#e3f2ff;"/><circle cx="13" cy="15" r="12" style="fill:#faefde;"/><path d="M62,48.23V15.06A3.05,3.05,0,0,0,59,12H25.64A13,13,0,1,0,6,25.95V48.23a3,3,0,0,0-2,2.83v2A3,3,0,0,0,7,56H61a3,3,0,0,0,3-2.94v-2A3,3,0,0,0,62,48.23ZM2,15a11,11,0,0,1,21.6-2.94,11.17,11.17,0,0,1,.36,2c0,.31,0,.62,0,.94A11,11,0,1,1,2,15ZM62,53.06A1,1,0,0,1,61,54H7a1,1,0,0,1-1-.94v-2a1,1,0,0,1,1-1H8V27A13,13,0,0,0,26,15c0-.32,0-.63,0-.94V14H59a1,1,0,0,1,1,1.06V48H19a1,1,0,0,0,0,2H60v.06h1a1,1,0,0,1,1,1Z" style="fill:#8d6c9f;"/><path d="M19.71,40A1,1,0,0,0,21,39.29L21.34,38H23a1,1,0,0,0,0-2H21.94L23,32.48l2,6.81A1,1,0,0,0,26,40a1,1,0,0,0,.29,0A1,1,0,0,0,27,38.71l-3-10a1,1,0,0,0-1.92,0l-3,10A1,1,0,0,0,19.71,40Z" style="fill:#8d6c9f;"/><path d="M31,40h4a3,3,0,0,0,3-3V35a3,3,0,0,0-1.13-2.32A2,2,0,0,0,37,32V31a3,3,0,0,0-3-3H31a1,1,0,0,0-1,1V39A1,1,0,0,0,31,40Zm5-3a1,1,0,0,1-1,1H32V34h3a1,1,0,0,1,1,1Zm-1-6v1H32V30h2A1,1,0,0,1,35,31Z" style="fill:#8d6c9f;"/><path d="M43,40h2a3,3,0,0,0,3-3,1,1,0,0,0-2,0,1,1,0,0,1-1,1H43a1,1,0,0,1-1-1V31a1,1,0,0,1,1-1h2a1,1,0,0,1,1,1,1,1,0,0,0,2,0,3,3,0,0,0-3-3H43a3,3,0,0,0-3,3v6A3,3,0,0,0,43,40Z" style="fill:#8d6c9f;"/><path d="M57,20.06a1,1,0,0,0,1-1v-2a1,1,0,1,0-2,0v2A1,1,0,0,0,57,20.06Z" style="fill:#8d6c9f;"/><path d="M52,20.06a1,1,0,0,0,1-1v-2a1,1,0,1,0-2,0v2A1,1,0,0,0,52,20.06Z" style="fill:#8d6c9f;"/><path d="M47,20.06a1,1,0,0,0,1-1v-2a1,1,0,1,0-2,0v2A1,1,0,0,0,47,20.06Z" style="fill:#8d6c9f;"/><path d="M42,20.06a1,1,0,0,0,1-1v-2a1,1,0,1,0-2,0v2A1,1,0,0,0,42,20.06Z" style="fill:#8d6c9f;"/><path d="M37,20.06a1,1,0,0,0,1-1v-2a1,1,0,1,0-2,0v2A1,1,0,0,0,37,20.06Z" style="fill:#8d6c9f;"/><path d="M32,20.06a1,1,0,0,0,1-1v-2a1,1,0,1,0-2,0v2A1,1,0,0,0,32,20.06Z" style="fill:#8d6c9f;"/><path d="M27,20.06a1,1,0,0,0,1-1v-2a1,1,0,1,0-2,0v2A1,1,0,0,0,27,20.06Z" style="fill:#8d6c9f;"/><path d="M15,48H11a1,1,0,0,0,0,2h4a1,1,0,0,0,0-2Z" style="fill:#8d6c9f;"/><path d="M12.29,15.71l5,5a1,1,0,0,0,1.41-1.41L14,14.59V8a1,1,0,0,0-2,0v7a1,1,0,0,0,.29.71Z" style="fill:#8d6c9f;"/><polygon points="39.5 22 40.74 24.26 43 25.5 40.74 26.74 39.5 29 38.26 26.74 36 25.5 38.26 24.26 39.5 22" style="fill:#fff;"/><polygon points="54.42 29 55.27 30.56 56.84 31.42 55.27 32.27 54.42 33.84 53.56 32.27 52 31.42 53.56 30.56 54.42 29" style="fill:#fff;"/><polygon points="46.42 41 46.92 41.92 47.84 42.42 46.92 42.92 46.42 43.84 45.92 42.92 45 42.42 45.92 41.92 46.42 41" style="fill:#fff;"/></svg>
