<?xml version="1.0"?>
<svg xmlns="http://www.w3.org/2000/svg" id="Layer_1" data-name="Layer 1" viewBox="0 0 80 80"><title>Icons8 RSL Colored Part 10</title><path d="M56.48,3.58s2.8-2.61,4.88-.5-.61,5.3-.61,5.3Z" style="fill:#8b8e98;"/><rect x="0.99" y="11" width="62" height="46" rx="4" ry="4" style="fill:#85cbf8;"/><path d="M8,11V31.74l-.52.14A2,2,0,0,0,6,33.79H6a2,2,0,0,0,1.48,1.92l.52.14V57H5a4,4,0,0,1-4-4V15a4,4,0,0,1,4-4Z" style="fill:#ace3ff;"/><path d="M57,18V50a1,1,0,0,1-1,1H16a1,1,0,0,1-1-1V18a1,1,0,0,1,1-1H56a1,1,0,0,1,1,1Z" style="fill:#c2cde7;"/><polygon points="57 17.08 57 33.76 56.99 33.77 39.76 51 20.51 51 54.43 17.08 57 17.08" style="fill:#d6dff2;"/><path d="M50.52,17.08,16.6,51H16a1,1,0,0,1-1-1V44.91L42.82,17.08Z" style="fill:#d6dff2;"/><path d="M60.17,10.89l-3.1,3.34L45.58,26.64a76.42,76.42,0,0,0-6.38,7.87l-.74,1a1,1,0,0,1-.39.32.53.53,0,0,1-.17.08l-9.51,2.71a1.85,1.85,0,0,1-1.69-.35L58.46,6.54,55.91,4a2.11,2.11,0,0,1,1,.57l1.75,1.74,1.47,1.47a2.13,2.13,0,0,1,.53.87A2.19,2.19,0,0,1,60.17,10.89Z" style="fill:#b5c4e0;"/><path d="M33.76,31.24,26.7,38.3a.79.79,0,0,1-.15-.12h0a1.88,1.88,0,0,1-.48-1.83l2.72-9.51a1,1,0,0,1,.35-.53Z" style="fill:#989ba3;"/><path d="M53.78,11.22l-20,20L29.14,26.3s0,0,0,0l1.27-.91a76.12,76.12,0,0,0,7.39-6L50.19,7.93Z" style="fill:#d6dff2;"/><path d="M58.46,6.54l-4.68,4.68L50.19,7.93l3.65-3.37A2.16,2.16,0,0,1,55.91,4Z" style="fill:#85cbf8;"/><polygon points="38.4 17.08 14.99 40.49 14.99 39.21 37.12 17.08 38.4 17.08" style="fill:#d6dff2;"/><path d="M38.07,35.86a.53.53,0,0,1-.17.08l-9.51,2.71a1.85,1.85,0,0,1-1.69-.35l7.06-7.06Z" style="fill:#8b8e98;"/><path d="M60.17,10.89l-3.1,3.34-3.29-3,4.68-4.68,2.19,2.15A2.19,2.19,0,0,1,60.17,10.89Z" style="fill:#7bbeeb;"/><path d="M61.49,10.67a3.18,3.18,0,0,0,.26-1.6l.8-.81a4,4,0,0,0,0-5.66l-.43-.43h0a4.09,4.09,0,0,0-5.66,0L55.65,3a3.17,3.17,0,0,0-2.49.84L46.47,10H5a5,5,0,0,0-5,5V53a5,5,0,0,0,5,5H59a5,5,0,0,0,5-5V15A5,5,0,0,0,61.49,10.67ZM57.88,3.59a2,2,0,0,1,2.83,0l.43.43a2,2,0,0,1,0,2.83l-.29.29,0,0L58.16,4.45l-.58-.58Zm-3.36,1.7a1.2,1.2,0,0,1,1.66,0l2.27,2.27,1,1A1.2,1.2,0,0,1,59.57,10a1.15,1.15,0,0,1-.14.17L57.77,12l-.68.73L52,7.63ZM25.28,38l-1,1a1,1,0,0,0,1.4,1.43l1-1a2.89,2.89,0,0,0,1.2.27,2.62,2.62,0,0,0,.78-.11l9.52-2.71a2.18,2.18,0,0,0,1.1-.78l.73-1a76.79,76.79,0,0,1,6.3-7.76L54.94,18h1V50H16V18H37.81l-.65.6a76.8,76.8,0,0,1-7.29,5.94l-1.29.92c-.05,0-.09.1-.13.14a.88.88,0,0,0-.53.76c0,.07-.07.12-.09.19l-2.71,9.51A2.87,2.87,0,0,0,25.28,38Zm22-26,2.17-2,1.1-1,5.22,5.22L54.07,16l-1.86,2-7.37,8a79.47,79.47,0,0,0-6.46,8l-.76,1-9.51,2.71a.85.85,0,0,1-.85-.23.84.84,0,0,1-.22-.85l2.35-8.22,5,5A1,1,0,0,0,35.83,32L30.42,26.6l.62-.44a79.31,79.31,0,0,0,7.48-6.1L40.75,18l2.17-2ZM62,53a3,3,0,0,1-3,3H5a3,3,0,0,1-3-3V15a3,3,0,0,1,3-3H44.3L40,16H16a2,2,0,0,0-2,2V50a2,2,0,0,0,2,2H56a2,2,0,0,0,2-2V18a2,2,0,0,0-1.31-1.87l3.56-3.85A3,3,0,0,1,62,15Z" style="fill:#8d6c9f;"/><path d="M7,19H9a1,1,0,1,0,0-2H7a1,1,0,0,0,0,2Z" style="fill:#8d6c9f;"/><path d="M7,24H9a1,1,0,1,0,0-2H7a1,1,0,0,0,0,2Z" style="fill:#8d6c9f;"/><path d="M7,29H9a1,1,0,1,0,0-2H7a1,1,0,0,0,0,2Z" style="fill:#8d6c9f;"/><path d="M9,39H7a1,1,0,0,0,0,2H9a1,1,0,1,0,0-2Z" style="fill:#8d6c9f;"/><path d="M9,44H7a1,1,0,0,0,0,2H9a1,1,0,1,0,0-2Z" style="fill:#8d6c9f;"/><path d="M9,49H7a1,1,0,0,0,0,2H9a1,1,0,1,0,0-2Z" style="fill:#8d6c9f;"/><path d="M8,31a3,3,0,1,0,3,3A3,3,0,0,0,8,31Zm0,4a1,1,0,1,1,1-1A1,1,0,0,1,8,35Z" style="fill:#8d6c9f;"/><path d="M37.52,27.17a1,1,0,0,0,1.41,0l6.24-6.24a1,1,0,0,0-1.41-1.41l-6.24,6.24A1,1,0,0,0,37.52,27.17Z" style="fill:#8d6c9f;"/></svg>
