<?xml version="1.0" encoding="iso-8859-1"?>
<!-- Generator: Adobe Illustrator 21.1.0, SVG Export Plug-In . SVG Version: 6.00 Build 0)  -->
<svg xmlns="http://www.w3.org/2000/svg" xmlns:xlink="http://www.w3.org/1999/xlink" version="1.1" id="Layer_1" x="0px" y="0px" viewBox="0 0 64 64" style="enable-background:new 0 0 64 64;" xml:space="preserve">
<g>
	<rect x="3" y="15" style="fill:#C5E4FA;" width="58" height="42"/>
	<polygon style="fill:#E3F2FF;" points="61,19.067 23.282,56.785 43.302,56.785 61,39.087  "/>
	<polygon style="fill:#E3F2FF;" points="8.479,56.785 17.416,56.785 59.121,15.08 50.184,15.08  "/>
	<polygon style="fill:#E3F2FF;" points="4,55.459 44.379,15.08 41.705,15.08 4,52.785  "/>
	<polygon style="fill:#FFF8F8;" points="14.502,26.996 15.74,29.26 18.004,30.498 15.74,31.736 14.502,34 13.264,31.736 11,30.498    13.264,29.26  "/>
	<polygon style="fill:#FFF8F8;" points="50.419,33.162 51.274,34.726 52.838,35.581 51.274,36.436 50.419,38 49.564,36.436    48,35.581 49.564,34.726  "/>
	<polygon style="fill:#FFF8F8;" points="8.648,42.704 9.231,43.769 10.296,44.352 9.231,44.935 8.648,46 8.065,44.935 7,44.352    8.065,43.769  "/>
	<polygon style="fill:#FAEFDE;" points="35,1 35,28 39,24 43,28 32,39 21,28 25,24 29,28 29,1  "/>
	<rect x="13" y="47" style="fill:#72CAAF;" width="38" height="10"/>
	<g>
		<path style="fill:#8D6C9F;" d="M59,14H36V1c0-0.55-0.45-1-1-1h-6c-0.55,0-1,0.45-1,1v13H5c-1.65,0-3,1.35-3,3v38    c0,1.65,1.35,3,3,3h8h38h8c1.65,0,3-1.35,3-3V17C62,15.35,60.65,14,59,14z M30,2h4v12v2v12c0,0.4,0.24,0.77,0.62,0.92    c0.37,0.16,0.8,0.07,1.09-0.21l3.29-3.3L41.59,28L32,37.59L22.41,28L25,25.41l3.29,3.3c0.29,0.28,0.72,0.37,1.09,0.21    C29.76,28.77,30,28.4,30,28V16v-2V2z M14,56v-7c0-0.551,0.449-1,1-1h34c0.551,0,1,0.449,1,1v7H14z M60,55c0,0.55-0.45,1-1,1h-7v-7    c0-1.654-1.346-3-3-3H15c-1.654,0-3,1.346-3,3v7H5c-0.55,0-1-0.45-1-1V22c0.552,0,1-0.448,1-1v-2c0-0.552-0.448-1-1-1v-1    c0-0.55,0.45-1,1-1h23v9.59l-2.29-2.3c-0.39-0.39-1.03-0.39-1.42,0l-4,4c-0.39,0.39-0.39,1.03,0,1.42l11,11    C31.49,39.9,31.74,40,32,40s0.51-0.1,0.71-0.29l11-11c0.39-0.39,0.39-1.03,0-1.42l-4-4c-0.39-0.39-1.03-0.39-1.42,0L36,25.59V16    h23c0.55,0,1,0.45,1,1v1c-0.552,0-1,0.448-1,1v2c0,0.552,0.448,1,1,1V55z"/>
		<path style="fill:#8D6C9F;" d="M9,18c-0.552,0-1,0.448-1,1v2c0,0.552,0.448,1,1,1s1-0.448,1-1v-2C10,18.448,9.552,18,9,18z"/>
		<path style="fill:#8D6C9F;" d="M14,18c-0.552,0-1,0.448-1,1v2c0,0.552,0.448,1,1,1s1-0.448,1-1v-2C15,18.448,14.552,18,14,18z"/>
		<path style="fill:#8D6C9F;" d="M20,19c0-0.552-0.448-1-1-1s-1,0.448-1,1v2c0,0.552,0.448,1,1,1s1-0.448,1-1V19z"/>
		<path style="fill:#8D6C9F;" d="M24,22c0.552,0,1-0.448,1-1v-2c0-0.552-0.448-1-1-1s-1,0.448-1,1v2C23,21.552,23.448,22,24,22z"/>
		<path style="fill:#8D6C9F;" d="M40,18c-0.552,0-1,0.448-1,1v2c0,0.552,0.448,1,1,1s1-0.448,1-1v-2C41,18.448,40.552,18,40,18z"/>
		<path style="fill:#8D6C9F;" d="M45,18c-0.552,0-1,0.448-1,1v2c0,0.552,0.448,1,1,1s1-0.448,1-1v-2C46,18.448,45.552,18,45,18z"/>
		<path style="fill:#8D6C9F;" d="M50,18c-0.552,0-1,0.448-1,1v2c0,0.552,0.448,1,1,1s1-0.448,1-1v-2C51,18.448,50.552,18,50,18z"/>
		<path style="fill:#8D6C9F;" d="M55,18c-0.552,0-1,0.448-1,1v2c0,0.552,0.448,1,1,1s1-0.448,1-1v-2C56,18.448,55.552,18,55,18z"/>
		<circle style="fill:#8D6C9F;" cx="20" cy="52" r="2"/>
		<circle style="fill:#8D6C9F;" cx="28" cy="52" r="2"/>
		<circle style="fill:#8D6C9F;" cx="36" cy="52" r="2"/>
		<circle style="fill:#8D6C9F;" cx="44" cy="52" r="2"/>
	</g>
</g>
</svg>
