<?xml version="1.0"?>
<svg xmlns="http://www.w3.org/2000/svg" id="Layer_1" data-name="Layer 1" viewBox="0 0 80 80"><title>Dusk Part 1</title><path d="M52.59,27a20,20,0,0,0-38.76-9.71A16,16,0,0,0,17,49H52a11,11,0,0,0,.59-22Z" style="fill:#c2cde7;"/><path d="M17.79,13.59a2.51,2.51,0,0,0,3.72-.21,15,15,0,0,1,23,0,2.51,2.51,0,0,0,3.72.21h0a2.52,2.52,0,0,0,.12-3.41,20,20,0,0,0-30.68,0,2.52,2.52,0,0,0,.12,3.41Z" style="fill:#d6dff2;"/><polygon points="6 44 61 44 55 49 13 49 6 44" style="fill:#acb7d0;"/><path d="M10,42a1,1,0,0,0-1,1v2a1,1,0,0,0,2,0V43A1,1,0,0,0,10,42Z" style="fill:#8d6c9f;"/><path d="M15,42a1,1,0,0,0-1,1v2a1,1,0,0,0,2,0V43A1,1,0,0,0,15,42Z" style="fill:#8d6c9f;"/><path d="M20,42a1,1,0,0,0-1,1v2a1,1,0,0,0,2,0V43A1,1,0,0,0,20,42Z" style="fill:#8d6c9f;"/><path d="M25,42a1,1,0,0,0-1,1v2a1,1,0,0,0,2,0V43A1,1,0,0,0,25,42Z" style="fill:#8d6c9f;"/><path d="M39,42a1,1,0,0,0-1,1v2a1,1,0,0,0,2,0V43A1,1,0,0,0,39,42Z" style="fill:#8d6c9f;"/><path d="M44,42a1,1,0,0,0-1,1v2a1,1,0,0,0,2,0V43A1,1,0,0,0,44,42Z" style="fill:#8d6c9f;"/><path d="M49,42a1,1,0,0,0-1,1v2a1,1,0,0,0,2,0V43A1,1,0,0,0,49,42Z" style="fill:#8d6c9f;"/><path d="M54,42a1,1,0,0,0-1,1v2a1,1,0,0,0,2,0V43A1,1,0,0,0,54,42Z" style="fill:#8d6c9f;"/><path d="M59,42a1,1,0,0,0-1,1v2a1,1,0,0,0,2,0V43A1,1,0,0,0,59,42Z" style="fill:#8d6c9f;"/><path d="M56.32,26.84a1,1,0,0,0-.14-.09,11.88,11.88,0,0,0-2.11-.54l-.3-.06a21.43,21.43,0,0,0,0-6,21,21,0,0,0-40.13-5.35l0,0c-.18.44-.33.88-.49,1.33,0,.1-.08.2-.12.31A17,17,0,0,0,17.45,50h34.2A12.29,12.29,0,0,0,64,38.45,12.06,12.06,0,0,0,56.32,26.84ZM59,45a13.05,13.05,0,0,1-1.16,1,10.49,10.49,0,0,1-6.19,2H17.45a15.75,15.75,0,0,1-8.59-2.53C8.09,44.92,7,44,7,44A14.71,14.71,0,0,1,2,33.84,15.1,15.1,0,0,1,12.44,18.72,21.07,21.07,0,0,0,12,23a1,1,0,0,0,2,0,18.94,18.94,0,0,1,.78-5.39h0c.11-.37.24-.73.37-1.09.07-.18.13-.36.2-.54A19,19,0,0,1,33,4a19.56,19.56,0,0,1,2.43.15A19.13,19.13,0,0,1,51.83,20.39,19.4,19.4,0,0,1,51.74,26a12,12,0,0,0-1.83.16,1,1,0,1,0,.34,2A10.09,10.09,0,0,1,52.59,28c.27,0,.53,0,.79.08l.32.05A10,10,0,0,1,62,38.38,9.77,9.77,0,0,1,59,45Z" style="fill:#8d6c9f;"/><path d="M43.21,12a1,1,0,0,0-.15-1.41,16.15,16.15,0,0,0-2.53-1.68,1,1,0,0,0-.94,1.76,14.14,14.14,0,0,1,2.22,1.47A1,1,0,0,0,43.21,12Z" style="fill:#8d6c9f;"/><path d="M36.38,7.36a16.22,16.22,0,0,0-11,1.57,1,1,0,0,0,1,1.76A14.19,14.19,0,0,1,36,9.31a1,1,0,1,0,.42-2Z" style="fill:#8d6c9f;"/><polygon points="35 27 35 52 39 48 43 52 32 63 21 52 25 48 29 52 29 27 35 27" style="fill:#faefde;"/><path d="M32.71,63.71l11-11a1,1,0,0,0,0-1.41l-4-4a1,1,0,0,0-1.41,0L36,49.59V27a1,1,0,0,0-1-1H29a1,1,0,0,0-1,1V49.59l-2.29-2.29a1,1,0,0,0-1.41,0l-4,4a1,1,0,0,0,0,1.41l11,11A1,1,0,0,0,32.71,63.71ZM22.41,52,25,49.41l3.29,3.29A1,1,0,0,0,30,52V28h4V52a1,1,0,0,0,1.71.71L39,49.41,41.59,52,32,61.59Z" style="fill:#8d6c9f;"/></svg>
